<svg xmlns="http://www.w3.org/2000/svg" viewBox="0 0 1024 785"><defs><style>.cls-1{fill:#00a9ce;}.cls-2{fill:none;}.cls-3{fill:#fff;}.cls-4{font-size:60px;fill:#002a3a;font-family:SegoeUI-Bold, Segoe UI;font-weight:700;}.cls-5{font-size:17px;font-family:SegoeUI, Segoe UI;}.cls-6{letter-spacing:0.04em;}.cls-7{letter-spacing:-0.01em;}.cls-8{letter-spacing:0.01em;}.cls-9{letter-spacing:0em;}.cls-10{letter-spacing:-0.01em;}.cls-11{letter-spacing:0em;}.cls-12{letter-spacing:-0.01em;}.cls-13{letter-spacing:0em;}.cls-14{letter-spacing:-0.02em;}.cls-15{letter-spacing:-0.01em;}.cls-16{letter-spacing:-0.01em;}.cls-17{letter-spacing:0.01em;}.cls-18{letter-spacing:0em;}.cls-19{letter-spacing:0.03em;}.cls-20{letter-spacing:-0.11em;}.cls-21{letter-spacing:-0.02em;}.cls-22{letter-spacing:0.01em;}.cls-23{letter-spacing:0.02em;}</style></defs><title> information-lifecycle</title><g id="Layer_2" data-name="Layer 2"><g id="Layer_2-2" data-name="Layer 2"><g id="Layer_3" data-name="Layer 3"><path class="cls-1" d="M133.57,343.51l13.71-13.78,13.79,13.71,16,15.89c9.82-115.65,87.31-212,192.73-249.29l19.95-33.21L354.64,55.76C226.46,99.5,132.05,216.16,120.87,356.27Z"/><path class="cls-1" d="M767.24,210.61l-4.71,21.17-4.22,19-19-4.22-18.7-4.16A291,291,0,0,1,700.52,557.2l1.56,39.66,40.14-1.58a347.2,347.2,0,0,0,25-384.67Z"/><path class="cls-1" d="M399.73,60.17l16.66,10-10,16.67-9,14.94A291.27,291.27,0,0,1,706.22,219.26l37.33,8.3,8.94-40.23C689.89,96.66,585.26,37.25,466.75,37.25a347.66,347.66,0,0,0-86.9,11Z"/><path class="cls-1" d="M315.89,681l-7.15-18.08,18.08-7.16,18.38-7.27C245.72,602.64,176.55,502.29,176,385.71l-28.63-28.48L119.76,385c.28,140.3,83.81,261,203.83,315.47Z"/><path class="cls-1" d="M702.85,616.29l-19.43.77-.77-19.43-.7-17.82A291.19,291.19,0,0,1,371.38,659L334,673.83l14.55,36.75a347.41,347.41,0,0,0,377-95.18Z"/><rect class="cls-2" width="1024" height="785"/><rect class="cls-3" x="482.75" y="6.25" width="354" height="116.33" rx="11"/><path class="cls-1" d="M825.75,7.25a10,10,0,0,1,10,10v94.33a10,10,0,0,1-10,10h-332a10,10,0,0,1-10-10V17.25a10,10,0,0,1,10-10h332m0-2h-332a12,12,0,0,0-12,12v94.33a12,12,0,0,0,12,12h332a12,12,0,0,0,12-12V17.25a12,12,0,0,0-12-12Z"/><text class="cls-4" transform="translate(498.75 74.66)">1</text><text class="cls-5" transform="translate(547.75 36.83)">Consider whether it is actually <tspan x="0" y="20.4">necessa</tspan><tspan class="cls-6" x="58.33" y="20.4">r</tspan><tspan x="64.92" y="20.4">y </tspan><tspan class="cls-7" x="77.8" y="20.4">t</tspan><tspan x="83.43" y="20.4">o collect and hold </tspan><tspan x="0" y="40.8">pe</tspan><tspan class="cls-8" x="18.88" y="40.8">r</tspan><tspan x="24.91" y="40.8">sonal info</tspan><tspan class="cls-9" x="98.15" y="40.8">r</tspan><tspan x="104.03" y="40.8">mation in o</tspan><tspan class="cls-10" x="189.79" y="40.8">r</tspan><tspan class="cls-11" x="195.48" y="40.8">der </tspan><tspan class="cls-12" x="224.94" y="40.8">t</tspan><tspan x="230.57" y="40.8">o </tspan><tspan x="0" y="61.2">car</tspan><tspan class="cls-6" x="22.41" y="61.2">r</tspan><tspan x="29" y="61.2">y out </tspan><tspan class="cls-13" x="71.89" y="61.2">y</tspan><tspan x="80.03" y="61.2">our functions or activities</tspan></text><rect class="cls-3" x="663.75" y="320.25" width="354" height="116.33" rx="11"/><path class="cls-1" d="M1006.75,321.25a10,10,0,0,1,10,10v94.33a10,10,0,0,1-10,10h-332a10,10,0,0,1-10-10V331.25a10,10,0,0,1,10-10h332m0-2h-332a12,12,0,0,0-12,12v94.33a12,12,0,0,0,12,12h332a12,12,0,0,0,12-12V331.25a12,12,0,0,0-12-12Z"/><text class="cls-4" transform="translate(679.75 388.66)">2</text><text class="cls-5" transform="translate(728.75 350.83)">Plan how pe<tspan class="cls-8" x="91.97" y="0">r</tspan><tspan x="98" y="0">sonal info</tspan><tspan class="cls-9" x="171.24" y="0">r</tspan><tspan x="177.11" y="0">mation will </tspan><tspan x="0" y="20.4">be handled by embedding pri</tspan><tspan class="cls-14" x="222.86" y="20.4">v</tspan><tspan class="cls-11" x="230.7" y="20.4">acy </tspan><tspan x="0" y="40.8">p</tspan><tspan class="cls-15" x="9.99" y="40.8">r</tspan><tspan x="15.68" y="40.8">o</tspan><tspan class="cls-16" x="25.64" y="40.8">t</tspan><tspan class="cls-11" x="31.27" y="40.8">ections in</tspan><tspan class="cls-16" x="103.08" y="40.8">t</tspan><tspan x="108.71" y="40.8">o the design </tspan><tspan class="cls-14" x="206.77" y="40.8">o</tspan><tspan x="216.42" y="40.8">f </tspan><tspan x="0" y="61.2">info</tspan><tspan class="cls-9" x="29.02" y="61.2">r</tspan><tspan x="34.9" y="61.2">mation handling practices</tspan></text><rect class="cls-3" x="441.75" y="655.25" width="436" height="121" rx="11"/><path class="cls-1" d="M866.75,656.25a10,10,0,0,1,10,10v99a10,10,0,0,1-10,10h-414a10,10,0,0,1-10-10v-99a10,10,0,0,1,10-10h414m0-2h-414a12,12,0,0,0-12,12v99a12,12,0,0,0,12,12h414a12,12,0,0,0,12-12v-99a12,12,0,0,0-12-12Z"/><text class="cls-4" transform="translate(451.75 722.66)">3</text><text class="cls-5" transform="translate(500.75 684.83)">Assess the risks associa<tspan class="cls-7" x="173.51" y="0">t</tspan><tspan x="179.14" y="0">ed with the collection </tspan><tspan class="cls-14" x="0" y="20.4">o</tspan><tspan x="9.65" y="20.4">f the pe</tspan><tspan class="cls-17" x="67.44" y="20.4">r</tspan><tspan x="73.47" y="20.4">sonal info</tspan><tspan class="cls-9" x="146.71" y="20.4">r</tspan><tspan x="152.58" y="20.4">mation due </tspan><tspan class="cls-16" x="243.17" y="20.4">t</tspan><tspan x="248.8" y="20.4">o a new act, </tspan><tspan x="0" y="40.8">practice, change </tspan><tspan class="cls-7" x="126.67" y="40.8">t</tspan><tspan x="132.3" y="40.8">o an existing p</tspan><tspan class="cls-15" x="242.02" y="40.8">r</tspan><tspan x="247.71" y="40.8">oject or as </tspan><tspan class="cls-15" x="0" y="61.2">p</tspan><tspan class="cls-18" x="9.77" y="61.2">a</tspan><tspan class="cls-19" x="18.42" y="61.2">r</tspan><tspan x="24.82" y="61.2">t </tspan><tspan class="cls-14" x="35.24" y="61.2">o</tspan><tspan x="44.89" y="61.2">f business as usual</tspan></text><rect class="cls-3" x="4.75" y="486.25" width="354" height="101" rx="11"/><path class="cls-1" d="M347.75,487.25a10,10,0,0,1,10,10v79a10,10,0,0,1-10,10h-332a10,10,0,0,1-10-10v-79a10,10,0,0,1,10-10h332m0-2h-332a12,12,0,0,0-12,12v79a12,12,0,0,0,12,12h332a12,12,0,0,0,12-12v-79a12,12,0,0,0-12-12Z"/><text class="cls-4" transform="translate(20.75 554.66)">4</text><text class="cls-5" transform="translate(69.75 516.83)"><tspan class="cls-20">T</tspan><tspan class="cls-11" x="7.11" y="0">a</tspan><tspan class="cls-21" x="15.75" y="0">k</tspan><tspan x="23.86" y="0">e app</tspan><tspan class="cls-15" x="66.05" y="0">r</tspan><tspan x="71.73" y="0">opria</tspan><tspan class="cls-12" x="110.37" y="0">t</tspan><tspan class="cls-18" x="115.99" y="0">e s</tspan><tspan class="cls-12" x="136.75" y="0">t</tspan><tspan class="cls-18" x="142.38" y="0">eps and put in</tspan><tspan class="cls-12" x="249.84" y="0">t</tspan><tspan x="255.47" y="0">o </tspan><tspan x="0" y="20.4">place stra</tspan><tspan class="cls-7" x="71.69" y="20.4">t</tspan><tspan x="77.32" y="20.4">egies </tspan><tspan class="cls-7" x="121.1" y="20.4">t</tspan><tspan x="126.73" y="20.4">o p</tspan><tspan class="cls-15" x="151.34" y="20.4">r</tspan><tspan x="157.02" y="20.4">o</tspan><tspan class="cls-16" x="166.98" y="20.4">t</tspan><tspan class="cls-11" x="172.61" y="20.4">ect pe</tspan><tspan class="cls-22" x="218.66" y="20.4">r</tspan><tspan x="224.68" y="20.4">sonal </tspan><tspan x="0" y="40.8">info</tspan><tspan class="cls-9" x="29.02" y="40.8">r</tspan><tspan x="34.9" y="40.8">mation that </tspan><tspan class="cls-13" x="126.75" y="40.8">y</tspan><tspan x="134.9" y="40.8">ou hold</tspan></text><rect class="cls-3" x="19.75" y="150.25" width="329" height="100" rx="11"/><path class="cls-1" d="M337.75,151.25a10,10,0,0,1,10,10v78a10,10,0,0,1-10,10h-307a10,10,0,0,1-10-10v-78a10,10,0,0,1,10-10h307m0-2h-307a12,12,0,0,0-12,12v78a12,12,0,0,0,12,12h307a12,12,0,0,0,12-12v-78a12,12,0,0,0-12-12Z"/><text class="cls-4" transform="translate(35.75 217.66)">5</text><text class="cls-5" transform="translate(84.75 180.83)">Dest<tspan class="cls-10" x="33.78" y="0">r</tspan><tspan x="39.47" y="0">oy or de-identi</tspan><tspan class="cls-23" x="151.06" y="0">f</tspan><tspan x="156.65" y="0">y the </tspan><tspan x="0" y="20.4">pe</tspan><tspan class="cls-8" x="18.88" y="20.4">r</tspan><tspan x="24.91" y="20.4">sonal info</tspan><tspan class="cls-9" x="98.15" y="20.4">r</tspan><tspan x="104.03" y="20.4">mation when it is </tspan><tspan x="0" y="40.8">no longer needed</tspan></text></g></g></g></svg>